<?xml version="1.0" encoding="UTF-8" standalone="no"?>
<!DOCTYPE svg PUBLIC "-//W3C//DTD SVG 1.1//EN" "http://www.w3.org/Graphics/SVG/1.1/DTD/svg11.dtd">
<svg width="100%" height="100%" viewBox="0 0 2048 2048" version="1.1" xmlns="http://www.w3.org/2000/svg" xmlns:xlink="http://www.w3.org/1999/xlink" xml:space="preserve" xmlns:serif="http://www.serif.com/" style="fill-rule:evenodd;clip-rule:evenodd;stroke-linejoin:round;stroke-miterlimit:2;">
    <g>
        <g transform="matrix(1,0,0,1,1036.886719,536.796875)">
            <path d="M0,0C0.7,0 1.4,-0.01 2.12,-0.01L13.26,-0.04C16.25,-0.04 19.24,-0.06 22.23,-0.08C38.52,-0.2 54.67,0.07 70.91,1.57C71.57,1.63 72.24,1.69 72.93,1.75C91.61,3.5 110.11,6.89 128.11,12.2C128.68,12.36 128.68,12.36 131.56,13.16C135.09,14.15 138.6,15.17 142.11,16.2C143.26,16.54 144.41,16.87 145.6,17.21C200.39,33.69 251.46,61.48 293.8,100.11C295.79,101.91 297.81,103.65 299.86,105.39C308.16,112.62 316.14,120.58 323.24,129C324.77,130.8 326.32,132.56 327.89,134.32C336.94,144.49 345.07,155.23 353.11,166.2C354.24,167.73 355.37,169.25 356.5,170.78C364.48,181.64 371.9,192.82 379.11,204.2C379.71,205.15 380.32,206.1 380.93,207.07C389.33,220.33 397.46,233.73 405.4,247.28C407.87,251.49 410.36,255.69 412.85,259.88C419.18,270.53 425.47,281.2 431.74,291.89C432.09,292.5 432.45,293.11 432.82,293.73C436.48,299.98 440.13,306.23 443.77,312.49C444.93,314.48 446.08,316.46 447.24,318.45C447.79,319.41 448.35,320.36 448.92,321.34C452,326.63 455.12,331.9 458.28,337.14C458.63,337.72 458.98,338.3 459.33,338.89C461.02,341.69 462.71,344.48 464.4,347.27C464.71,347.77 464.71,347.77 466.23,350.29C466.76,351.16 467.29,352.04 467.84,352.95C470.2,357.13 470.27,360.82 470.29,365.48C470.29,366.23 470.3,366.97 470.31,367.74C470.33,370.25 470.34,372.76 470.35,375.27C470.37,377.07 470.38,378.87 470.39,380.66C470.51,397.1 470.57,413.54 470.61,429.98C470.64,442.13 470.7,454.27 470.8,466.41C470.86,474.95 470.9,483.5 470.91,492.05C470.91,497.15 470.94,502.24 470.99,507.34C471.04,512.15 471.05,516.96 471.04,521.76C471.04,523.52 471.05,525.27 471.08,527.02C471.28,539.72 468.62,548.32 462.11,559.2L459.62,563.7C458.93,564.87 458.23,566.04 457.53,567.2C457.14,567.85 456.76,568.49 456.37,569.16C455.16,571.17 453.95,573.19 452.74,575.2C451.89,576.62 451.04,578.05 450.19,579.47C445.78,586.83 441.33,594.16 436.74,601.41C432.41,608.26 428.28,615.22 424.12,622.18C419.75,629.48 415.35,636.77 410.92,644.04C404.74,654.18 398.63,664.36 392.59,674.58C386.74,684.45 380.89,694.31 374.86,704.08C374.38,704.87 373.89,705.67 373.38,706.49C360.81,726.73 360.81,726.73 354.2,728.8C348.65,729.87 343.87,730.03 338.86,727.14C334.14,723.83 330.95,719.72 329.11,714.2C329,712.31 328.94,710.41 328.91,708.51L328.85,704.93C328.83,703.63 328.81,702.33 328.8,701C328.78,699.62 328.76,698.25 328.73,696.87L328.58,685.71L328.49,678.77C328.04,646.91 328,615.06 328.11,583.2C326.98,584.16 325.85,585.12 324.72,586.09C324.41,586.35 324.41,586.35 322.82,587.71C321.03,589.28 319.49,590.92 317.99,592.77C314.72,596.62 311.2,600.16 307.61,603.7C304.18,607.09 300.79,610.46 297.68,614.14C293.8,618.71 289.5,622.85 285.24,627.06C281.56,630.71 278.06,634.45 274.68,638.39C272.87,640.48 271.02,642.51 269.11,644.52C268.52,645.15 267.92,645.79 267.3,646.44C261.06,651.47 253.95,652.03 246.24,652.95C245,653.11 243.75,653.27 242.47,653.43C238.64,653.92 234.8,654.39 230.97,654.85C226.57,655.39 222.18,655.94 217.78,656.48C192.27,659.65 166.76,662.76 141.22,665.68C137.76,666.07 134.3,666.47 130.83,666.86L123.7,667.67C120.23,668.07 116.75,668.47 113.28,668.86C112.22,668.98 111.15,669.1 110.06,669.23C109.57,669.28 109.57,669.28 107.07,669.57C106.21,669.67 105.34,669.77 104.45,669.87C102.28,670.18 100.23,670.63 98.11,671.2C97.3,677.19 96.48,683.19 95.66,689.18C95.38,691.21 95.11,693.24 94.83,695.27C92.22,714.34 92.22,714.34 91.07,723.02C90.37,728.32 89.64,733.62 88.89,738.91C88.79,739.66 88.69,740.4 88.58,741.17L87.29,750.29C86.14,758.42 85.06,766.54 84.21,774.71C83.32,783.1 82.04,791.4 80.73,799.73C78.8,812.09 77.08,824.48 75.39,836.88C74.95,840.16 74.49,843.45 74.04,846.73C73.59,849.93 73.16,853.13 72.72,856.33C72.56,857.49 72.4,858.66 72.23,859.85C71.4,866.03 70.77,871.98 71.11,878.2C72.84,880.33 72.84,880.33 75.18,881.77C84.33,888.05 90.7,896.65 93.75,907.47C95.81,923.06 94.22,937.1 84.83,950.14C79.03,957.09 72.45,961.77 64.11,965.2C63.37,965.52 62.62,965.84 61.86,966.17C51.16,970.09 38.29,969.55 27.77,965.48C23.56,963.46 19.83,961.01 16.11,958.2C15.25,957.63 14.38,957.05 13.49,956.45C7.06,950.37 2.63,942.65 0.11,934.2L0.05,931.38C-0.19,927.55 -0.79,925.46 -2.89,922.2C-9.32,917.83 -17.38,915.89 -24.7,913.52C-26.93,912.75 -29.16,911.98 -31.38,911.21C-35.97,909.62 -40.56,908.05 -45.16,906.5C-54.2,903.43 -63.14,900.1 -72.08,896.75C-76.82,894.98 -81.57,893.23 -86.32,891.48C-87.26,891.13 -88.21,890.78 -89.19,890.42C-118.21,879.69 -147.27,869.06 -176.33,858.45C-194.13,851.95 -211.92,845.41 -229.68,838.81C-240.38,834.84 -251.11,830.96 -261.89,827.2C-262.43,827.75 -262.98,828.29 -263.55,828.85C-274.11,839.15 -285.88,843.5 -300.57,843.52C-313.02,843.28 -323.92,838.5 -333.14,830.17C-343.44,819.4 -347.28,806.86 -347.26,792.29C-346.95,781.43 -342.67,769.99 -334.89,762.2C-335.22,757.11 -336.61,752.93 -338.6,748.26C-338.88,747.6 -339.16,746.94 -339.44,746.25C-340.05,744.81 -340.67,743.37 -341.28,741.93C-342.29,739.57 -343.29,737.22 -344.28,734.86C-345.35,732.32 -346.42,729.78 -347.5,727.23C-351.75,717.19 -355.91,707.1 -360.07,697.02C-360.47,696.06 -360.87,695.1 -361.27,694.11C-367.94,677.97 -374.55,661.8 -381.14,645.62C-387.23,630.69 -393.35,615.78 -399.51,600.89C-407.55,581.47 -415.52,562.02 -423.47,542.56C-425.85,536.73 -428.24,530.89 -430.64,525.07C-432.3,521.02 -433.96,516.98 -435.62,512.94C-436.41,511.01 -437.21,509.09 -438,507.17C-439.1,504.5 -440.19,501.83 -441.29,499.16C-441.61,498.38 -441.93,497.61 -442.26,496.81C-444.36,491.67 -446.19,486.49 -447.89,481.2C-448.94,481.29 -449.99,481.37 -451.07,481.45C-462.86,481.39 -473.81,475.74 -482.36,467.95C-493.15,456.72 -497.49,443.93 -497.2,428.57C-495.99,415.52 -489.53,403.06 -479.89,394.2C-470.96,387.64 -462.33,383.01 -451.07,383.14L-448.12,383.17C-447.75,383.17 -447.75,383.17 -445.89,383.2C-445.62,382.36 -445.36,381.51 -445.09,380.64C-443.83,377.03 -442.3,373.61 -440.65,370.16C-440.49,369.83 -440.49,369.83 -439.69,368.14C-439.01,366.7 -438.33,365.26 -437.64,363.83C-436.18,360.76 -434.73,357.68 -433.28,354.61C-432.54,353.04 -431.8,351.47 -431.05,349.91C-427.86,343.17 -424.71,336.41 -421.57,329.64C-421.06,328.54 -420.55,327.44 -420.03,326.3C-417.59,321.05 -415.16,315.8 -412.73,310.55C-402.16,287.68 -391.55,264.83 -380.76,242.06C-379.92,240.27 -379.07,238.48 -378.23,236.69C-361.68,201.67 -343.65,167.94 -315.45,140.76C-313.73,139.04 -312.16,137.24 -310.57,135.39C-304.6,128.47 -298.07,122.1 -291.12,116.16C-288.84,114.16 -286.62,112.09 -284.41,110C-277.82,103.81 -270.96,98.13 -263.77,92.65C-261.81,91.14 -259.87,89.61 -257.93,88.08C-241.57,75.25 -224.06,64.28 -205.89,54.2C-205.09,53.76 -204.29,53.31 -203.46,52.85C-149.39,22.94 -88.19,6.79 -26.89,1.2C-26.47,1.16 -26.47,1.16 -24.36,0.95C-16.23,0.2 -8.16,0.02 0,0ZM4.488,36.141C-3.202,36.071 -10.792,36.321 -18.452,36.921C-19.622,37.021 -20.752,37.111 -21.892,37.201C-37.682,38.421 -53.152,40.611 -68.702,43.561C-69.632,43.731 -70.542,43.911 -71.452,44.081C-87.462,47.091 -103.362,50.571 -118.852,55.671C-119.632,55.941 -120.382,56.191 -121.132,56.451C-160.202,69.721 -198.112,87.861 -230.902,113.131C-232.942,114.711 -234.992,116.281 -237.052,117.831C-245.062,123.831 -252.912,129.831 -260.212,136.681C-261.612,138.001 -263.012,139.311 -264.432,140.601C-271.422,146.891 -278.072,153.331 -284.342,160.341C-286.462,162.731 -286.462,162.731 -286.892,163.201C-312.292,191.071 -330.262,219.741 -346.082,253.991C-349.422,261.221 -352.812,268.421 -356.222,275.621C-366.362,297.051 -376.472,318.511 -386.322,340.081C-389.112,346.201 -391.932,352.311 -394.802,358.401L-395.832,360.591C-397.542,364.211 -399.242,367.831 -400.952,371.451C-401.602,372.811 -402.242,374.171 -402.892,375.531L-403.802,377.461C-405.782,381.651 -407.502,385.771 -408.892,390.201C-406.892,390.201 -406.892,390.201 -405.072,388.881C-402.892,387.201 -402.892,387.201 -400.532,385.801C-399.642,385.301 -398.772,384.821 -397.902,384.341C-396.892,383.771 -395.902,383.221 -394.922,382.671C-392.722,381.461 -390.532,380.241 -388.332,379.021L-383.112,376.111C-378.222,373.391 -373.342,370.661 -368.462,367.931C-366.402,366.771 -364.332,365.611 -362.262,364.451C-358.102,362.131 -353.952,359.801 -349.792,357.471C-335.782,349.611 -321.752,341.781 -307.702,333.981L-297.532,328.341C-285.472,321.631 -273.412,314.931 -261.322,308.271C-259.812,307.431 -259.812,307.431 -259.512,307.261C-253.312,303.851 -247.122,300.431 -240.912,297.021C-238.252,295.561 -235.592,294.101 -232.922,292.631C-231.642,291.931 -230.362,291.221 -229.072,290.521C-226.712,289.221 -224.352,287.931 -221.992,286.631C-219.962,285.481 -217.922,284.341 -215.892,283.201C-213.602,282.071 -211.402,280.951 -209.262,279.581C-207.022,277.331 -206.972,275.141 -206.922,272.061C-207.062,268.441 -207.102,264.821 -206.892,261.201C-203.972,248.761 -197.352,239.651 -187.702,231.451C-176.642,223.391 -165.152,222.001 -151.892,223.201C-148.172,224.071 -148.172,224.071 -144.892,224.201C-142.222,221.951 -142.222,221.951 -140.972,220.381C-140.102,219.191 -139.202,218.011 -138.292,216.851C-137.802,216.221 -137.322,215.611 -136.832,215.001C-134.472,211.941 -132.022,208.971 -129.492,206.041C-128.502,204.891 -127.502,203.741 -126.512,202.581C-124.432,200.151 -122.342,197.721 -120.232,195.301C-115.632,190.011 -110.992,184.751 -106.522,179.341C-100.692,172.151 -94.682,165.141 -88.592,158.161C-82.822,151.551 -76.992,144.981 -71.422,138.201C-67.692,133.581 -63.912,129.081 -59.892,124.701C-56.572,121.101 -53.402,117.441 -50.322,113.641C-48.142,110.941 -45.952,108.271 -43.642,105.681C-39.732,101.391 -35.922,97.081 -32.262,92.581C-29.762,89.491 -27.252,86.431 -24.632,83.451C-18.132,76.091 -11.612,68.721 -5.362,61.141C0.098,54.391 5.618,47.661 11.788,41.541C12.258,41.081 12.718,40.641 13.178,40.201C15.108,38.201 15.108,38.201 15.108,36.201C12.618,36.181 10.118,36.171 7.618,36.151C6.558,36.151 5.518,36.141 4.488,36.141ZM-189.651,310.643C-193.051,309.973 -193.051,309.973 -200.631,314.373C-202.341,315.423 -204.051,316.473 -205.781,317.493C-208.261,318.943 -210.731,320.383 -213.191,321.843C-218.651,325.093 -224.201,328.173 -229.771,331.233C-232.811,332.883 -235.841,334.553 -238.871,336.223C-239.491,336.563 -240.091,336.903 -240.691,337.233C-249.871,342.293 -259.031,347.393 -268.201,352.483L-278.281,358.093C-296.401,368.143 -314.521,378.193 -332.541,388.403C-341.301,393.373 -350.071,398.323 -358.891,403.173C-361.391,404.543 -363.881,405.913 -366.371,407.303C-371.591,410.233 -376.801,413.183 -382.191,415.813C-388.311,418.703 -395.041,421.343 -399.891,426.203C-401.971,430.363 -402.021,434.583 -401.941,439.153C-401.671,447.393 -405.311,453.673 -410.071,460.143C-411.391,461.793 -412.661,463.483 -413.891,465.203C-414.971,467.843 -414.951,469.003 -414.111,471.773C-413.671,472.793 -413.241,473.773 -412.811,474.763C-412.301,475.943 -411.811,477.093 -411.321,478.233C-410.161,480.873 -409.021,483.513 -407.881,486.163C-407.261,487.623 -406.631,489.083 -406.011,490.543C-402.271,499.253 -398.641,507.993 -395.041,516.743C-393.011,521.663 -390.981,526.583 -388.961,531.503C-388.541,532.513 -388.131,533.493 -387.731,534.483C-383.931,543.673 -380.121,552.863 -376.311,562.053C-370.141,576.923 -363.991,591.803 -357.891,606.703C-352.771,619.193 -347.631,631.663 -342.461,644.123C-329.151,676.163 -316.021,708.263 -303.011,740.423C-302.631,741.373 -302.261,742.283 -301.891,743.203L-296.891,743.203C-294.851,737.553 -292.811,731.913 -290.771,726.263C-290.381,725.203 -290.011,724.173 -289.641,723.143C-283.101,705.053 -276.531,686.963 -269.951,668.893C-264.321,653.423 -258.711,637.943 -253.151,622.453C-245.571,601.343 -237.891,580.283 -230.121,559.243C-225.701,547.263 -221.271,535.273 -216.891,523.273C-216.441,522.053 -216.011,520.863 -215.581,519.673C-213.491,513.953 -211.411,508.243 -209.331,502.523C-208.381,499.893 -208.381,499.893 -208.191,499.373C-207.451,497.363 -206.721,495.343 -205.991,493.333C-204.391,488.863 -202.891,484.363 -200.881,480.063C-194.461,467.123 -194.461,467.123 -192.601,437.173C-192.011,427.443 -191.161,417.743 -190.231,408.043C-189.931,404.883 -189.621,401.723 -189.321,398.573C-188.521,389.993 -187.701,381.423 -186.881,372.843C-186.361,367.413 -185.841,361.983 -185.331,356.553C-185.141,354.483 -184.941,352.423 -184.751,350.353C-183.671,339.243 -181.621,327.363 -182.891,316.203C-185.011,314.083 -187.011,312.103 -189.651,310.643ZM56.113,43.203C52.793,47.453 49.473,51.673 45.893,55.703C42.883,59.013 39.863,62.303 37.003,65.753C31.613,72.413 26.063,78.913 20.443,85.373C17.793,88.413 15.163,91.473 12.533,94.533C12.033,95.123 11.543,95.693 11.053,96.263C10.063,97.423 9.073,98.583 8.073,99.743C5.593,102.643 3.103,105.543 0.613,108.453C-0.387,109.623 -1.387,110.783 -2.387,111.953C-2.897,112.553 -3.397,113.123 -3.887,113.703C-5.887,116.033 -7.887,118.373 -9.887,120.703C-10.887,121.873 -11.887,123.033 -12.887,124.203C-15.387,127.113 -17.877,130.023 -20.367,132.933C-21.357,134.093 -22.347,135.243 -23.337,136.403C-23.847,136.993 -24.337,137.563 -24.827,138.143C-27.387,141.133 -29.947,144.123 -32.537,147.103C-37.977,153.353 -43.417,159.573 -48.637,166.013C-51.457,169.503 -54.367,172.883 -57.387,176.203C-60.497,179.623 -63.477,183.113 -66.387,186.703C-68.587,189.423 -70.807,192.113 -73.137,194.733C-77.007,198.973 -80.777,203.243 -84.387,207.703C-87.297,211.293 -90.277,214.783 -93.387,218.203C-96.487,221.603 -99.437,225.063 -102.327,228.643C-104.247,231.043 -106.167,233.433 -108.267,235.683C-108.757,236.183 -109.237,236.673 -109.707,237.163L-112.507,240.083C-115.117,242.693 -115.117,242.693 -116.887,245.203C-116.787,247.853 -116.787,247.853 -114.917,252.753C-111.447,261.553 -110.497,271.003 -112.297,280.353C-112.787,281.893 -112.787,281.893 -112.887,282.203C-113.147,283.033 -113.397,283.843 -113.647,284.653C-118.547,298.823 -125.337,307.983 -138.827,314.893C-142.167,316.463 -142.167,316.463 -144.887,318.203C-146.957,321.963 -146.957,321.963 -147.677,330.043C-147.747,330.953 -147.817,331.843 -147.887,332.723L-148.637,341.493C-148.807,343.563 -148.977,345.633 -149.157,347.693C-149.507,351.803 -149.857,355.913 -150.197,360.023C-150.617,364.993 -151.037,369.953 -151.487,374.923C-152.177,382.633 -152.827,390.353 -153.407,398.073C-153.477,398.933 -153.537,399.773 -153.597,400.603C-153.927,404.903 -154.257,409.203 -154.567,413.503C-155.207,422.243 -155.927,430.963 -156.937,439.683C-157.617,445.513 -158.177,451.333 -158.467,457.203C-158.507,458.073 -158.537,458.923 -158.577,459.763C-158.737,462.903 -158.987,466.053 -158.887,469.203C-157.887,470.203 -157.887,470.203 -156.787,472.353C-155.627,474.753 -155.627,474.753 -155.407,475.223C-154.867,476.323 -154.357,477.393 -153.837,478.463L-152.137,482.013C-147.427,491.813 -142.807,501.643 -138.267,511.513C-134.577,519.583 -130.747,527.543 -126.767,535.473C-121.647,545.663 -116.597,555.893 -111.567,566.143C-109.977,569.393 -108.387,572.643 -106.797,575.883C-101.127,587.433 -95.487,599.003 -89.947,610.613C-86.927,616.983 -83.847,623.333 -80.677,629.633C-76.987,636.963 -73.337,644.303 -69.817,651.703C-65.597,660.583 -61.307,669.423 -56.887,678.203C-53.547,684.793 -50.297,691.413 -47.127,698.083C-41.037,710.873 -34.757,723.553 -28.387,736.203C-22.537,747.823 -16.727,759.453 -11.137,771.203C-7.547,778.753 -3.907,786.263 -0.147,793.723C4.453,802.833 9.033,811.953 13.423,821.173C17.333,829.433 21.293,837.673 25.353,845.863C25.953,847.063 26.533,848.223 27.113,849.393C28.513,852.223 28.513,852.223 28.783,852.783C29.323,853.853 29.843,854.893 30.363,855.933C32.033,859.293 33.773,862.263 36.113,865.203C38.853,845.963 41.493,826.723 43.773,807.433C44.923,797.663 46.013,787.883 47.613,778.173C49.083,769.693 50.123,761.183 51.113,752.643C51.983,745.123 52.793,737.613 54.183,730.183C54.763,727.153 55.283,724.163 55.603,721.103C56.453,712.353 57.613,703.693 58.993,695.013C60.043,688.373 61.063,681.743 61.893,675.063C61.983,674.353 62.073,673.653 62.153,672.963C62.503,670.183 62.843,667.413 63.173,664.643C63.333,663.303 63.483,661.993 63.633,660.693C64.013,657.563 64.013,657.563 64.083,656.953C65.033,648.793 65.033,648.793 71.573,632.313C72.033,631.173 72.473,630.073 72.913,628.973C74.373,625.283 75.843,621.593 77.313,617.913C78.613,614.633 79.923,611.353 81.233,608.063C81.503,607.393 81.763,606.733 82.023,606.073C82.553,604.743 83.073,603.423 83.603,602.093C84.393,600.113 85.183,598.133 85.963,596.153C89.083,588.323 92.193,580.493 95.263,572.653C100.993,558.043 106.783,543.483 112.713,528.963C113.963,525.913 115.203,522.873 116.443,519.823C121.513,507.413 126.593,495.013 131.733,482.643C135.533,473.473 139.313,464.303 143.063,455.113C145.423,449.293 147.793,443.473 150.213,437.673C160.553,412.983 171.613,389.563 171.293,362.373C171.113,356.433 171.293,350.613 171.673,344.683C171.813,342.453 171.953,340.223 172.083,337.993C172.143,336.883 172.203,335.813 172.253,334.733L172.613,328.263C173.253,316.373 173.913,304.483 174.853,292.603C175.863,279.923 176.683,267.243 177.353,254.533C177.543,250.853 177.743,247.173 177.943,243.483C178.323,236.433 178.693,229.373 178.993,222.313L179.113,219.203C179.223,216.523 179.323,213.843 179.383,211.153C179.403,210.363 179.413,209.603 179.433,208.833C179.693,201.693 177.653,197.673 172.943,192.323C170.193,189.353 167.773,186.203 165.343,182.983C164.223,181.493 163.103,180.023 161.983,178.553C160.573,176.723 160.573,176.723 160.303,176.363C159.743,175.633 159.203,174.923 158.653,174.213C158.133,173.533 157.623,172.863 157.113,172.203C151.473,164.843 145.803,157.513 140.113,150.203C135.213,143.903 130.323,137.593 125.463,131.263C123.883,129.213 122.313,127.163 120.733,125.113C117.693,121.163 114.653,117.223 111.633,113.263C101.383,99.843 91.063,86.473 80.613,73.203C78.183,70.123 75.763,67.043 73.363,63.933C72.723,63.113 72.113,62.313 71.493,61.513C70.243,59.893 68.993,58.263 67.733,56.643C64.093,51.873 60.483,47.333 56.113,43.203ZM67.113,235.203C76.543,242.363 84.093,250.993 88.113,262.203C88.413,263.003 88.713,263.793 89.023,264.613C93.743,279.093 91.733,294.683 85.493,308.323C77.963,322.533 66.253,331.453 51.113,336.203C37.073,339.923 21.753,337.753 9.313,330.593C-2.967,322.483 -13.147,310.243 -16.477,295.613C-17.047,290.883 -17.107,286.213 -17.137,281.453L-17.197,278.613C-17.277,264.123 -11.247,252.153 -1.197,241.893C18.033,223.073 44.353,221.063 67.113,235.203ZM-176.887,516.203C-178.387,520.853 -180.057,525.433 -181.757,530.013C-182.547,532.153 -183.337,534.283 -184.127,536.413L-185.407,539.893C-193.787,562.533 -202.087,585.203 -210.267,607.923C-210.497,608.573 -210.727,609.203 -210.947,609.823C-211.407,611.113 -211.867,612.393 -212.337,613.673C-213.487,616.873 -214.637,620.073 -215.787,623.283C-216.027,623.933 -216.247,624.563 -216.477,625.193C-220.797,637.203 -225.157,649.213 -229.527,661.203C-236.727,680.933 -243.897,700.673 -250.987,720.433C-251.657,722.323 -252.337,724.203 -253.007,726.083C-254.297,729.633 -255.577,733.183 -256.847,736.733C-257.247,737.853 -257.637,738.933 -258.017,740.003C-260.437,746.673 -262.717,753.193 -263.887,760.203C-263.327,760.943 -262.777,761.653 -262.237,762.363C-255.567,767.573 -252.687,777.993 -251.077,786.013C-250.727,788.083 -250.347,790.153 -249.887,792.203C-247.887,793.203 -247.887,793.203 -245.277,794.213C-242.427,795.263 -242.427,795.263 -241.867,795.473C-239.827,796.233 -237.797,796.993 -235.757,797.743C-234.997,798.033 -234.257,798.303 -233.507,798.583C-219.527,803.763 -205.527,808.903 -191.517,814.013C-149.747,829.253 -108.027,844.653 -66.337,860.133C-63.777,861.083 -61.207,862.033 -58.647,862.983C-57.057,863.573 -57.057,863.573 -56.747,863.693C-36.467,871.223 -16.177,878.713 4.113,886.203L5.113,884.203C4.543,882.993 4.003,881.823 3.453,880.653C2.303,878.483 1.163,876.313 0.103,874.103C-6.177,860.663 -12.767,847.393 -19.417,834.133C-25.117,822.773 -30.877,811.443 -36.327,799.963C-41.137,789.763 -46.137,779.653 -51.197,769.573C-58.247,755.533 -65.237,741.463 -72.077,727.323C-76.187,718.813 -80.317,710.313 -84.477,701.833L-86.117,698.493C-88.327,693.973 -90.547,689.463 -92.767,684.953C-98.817,672.623 -104.867,660.293 -110.777,647.903C-113.947,641.243 -117.137,634.603 -120.457,628.023C-132.197,604.873 -143.527,581.503 -154.697,558.083C-158.777,549.513 -162.897,540.963 -167.027,532.423C-167.387,531.683 -167.727,530.973 -168.077,530.263C-170.347,525.573 -172.617,520.893 -174.887,516.203L-176.887,516.203ZM194.113,422.203C192.193,425.083 190.933,427.903 189.653,431.103C189.323,431.933 189.003,432.743 188.683,433.553C187.593,436.283 186.503,439.003 185.413,441.743C184.623,443.723 183.833,445.713 183.043,447.693C180.933,452.973 178.823,458.263 176.713,463.543C174.593,468.863 172.473,474.193 170.353,479.513C167.853,485.763 165.353,492.013 162.863,498.273C158.683,508.743 154.513,519.213 150.323,529.673C149.893,530.733 149.483,531.763 149.073,532.793C147.093,537.733 145.123,542.663 143.143,547.593C139.073,557.743 135.043,567.893 131.123,578.103C128.023,586.183 124.943,594.263 121.603,602.253C120.893,603.963 120.893,603.963 120.753,604.293C119.643,606.933 118.543,609.573 117.423,612.203C114.593,618.803 111.563,624.963 111.113,632.203C118.133,631.743 125.123,631.123 132.113,630.263C136.673,629.703 141.233,629.173 145.813,628.773C156.163,627.853 166.443,626.673 176.733,625.263C185.303,624.093 193.873,622.973 202.463,622.053C211.793,621.063 221.113,620.033 230.403,618.813C231.643,618.653 232.853,618.493 234.053,618.323C239.243,617.703 244.433,617.793 248.343,614.093C250.113,611.203 250.113,611.203 251.873,609.333C252.593,608.633 253.283,607.953 253.973,607.273C255.453,605.813 256.943,604.353 258.423,602.893C262.673,598.713 266.883,594.543 270.783,590.033C273.293,587.113 275.893,584.343 278.633,581.643C281.813,578.543 284.993,575.453 287.953,572.153C291.193,568.313 294.573,564.703 298.133,561.163C305.163,554.203 313.803,547.213 318.113,538.203C314.693,534.763 311.263,531.323 307.843,527.883C306.433,526.463 305.023,525.053 303.613,523.643C301.553,521.573 299.503,519.503 297.443,517.433C296.763,516.763 296.113,516.103 295.453,515.453C291.673,511.633 287.853,507.933 283.813,504.403C281.683,502.573 279.653,500.753 277.643,498.793C274.863,495.933 272.093,493.083 269.113,490.423C266.223,487.953 263.383,485.473 260.673,482.793C257.523,479.603 254.433,476.373 251.083,473.393C247.603,470.423 244.263,467.403 241.043,464.153C237.473,460.533 233.923,456.943 230.053,453.643C226.913,450.963 224.013,448.133 221.113,445.203C218.173,442.233 215.223,439.363 212.053,436.643C208.993,434.043 206.213,431.273 203.423,428.393C200.493,425.273 198.193,423.553 194.113,422.203ZM104.113,44.203C104.113,46.423 104.113,46.423 107.363,50.493C108.343,51.703 109.323,52.923 110.303,54.143C110.833,54.813 111.343,55.463 111.863,56.113C114.523,59.443 117.133,62.813 119.723,66.193C120.263,66.903 120.783,67.583 121.303,68.263C124.213,72.083 127.123,75.893 130.023,79.713L134.013,84.963C134.703,85.873 135.383,86.753 136.053,87.643C140.543,93.543 145.043,99.423 149.603,105.263C154.453,111.473 159.273,117.703 163.993,124.013C169.993,132.053 176.063,140.043 182.153,148.013L187.913,155.573L191.303,160.013C191.853,160.743 192.393,161.443 192.923,162.143C195.973,166.143 199.033,170.123 202.183,174.053C215.493,190.613 215.643,201.473 214.143,222.153C212.833,240.073 211.783,257.993 211.053,275.953C210.573,287.793 210.043,299.583 208.993,311.393C208.123,321.023 207.893,330.543 208.113,340.203L209.113,340.203C212.123,336.723 214.973,333.133 217.803,329.513C222.943,322.903 228.183,316.383 233.473,309.893C236.453,306.243 239.423,302.573 242.363,298.893C244.293,296.463 246.243,294.043 248.213,291.643C251.893,287.173 255.543,282.673 259.103,278.103C262.743,273.433 266.403,268.813 270.243,264.303C274.413,259.433 278.483,254.513 282.423,249.453C286.563,244.123 290.813,238.893 295.113,233.703C299.403,228.533 303.623,223.323 307.733,218.013C311.573,213.073 315.563,208.293 319.673,203.583C322.563,200.313 325.433,197.283 327.113,193.203C318.563,181.183 309.783,169.523 300.003,158.463C298.373,156.623 296.753,154.783 295.163,152.913C288.683,145.283 281.523,138.093 273.993,131.513C271.893,129.733 269.823,127.943 267.793,126.093C231.513,93.013 188.753,69.163 142.083,54.143C139.603,53.363 139.603,53.363 139.113,53.203C127.543,49.483 116.093,46.273 104.113,44.203ZM348.113,225.203C347.133,226.183 346.243,227.253 345.363,228.323C343.483,230.623 343.483,230.623 343.113,231.083C342.273,232.103 341.463,233.103 340.653,234.093C339.033,236.073 337.413,238.053 335.793,240.023C332.933,243.513 330.073,246.993 327.263,250.523C323.593,255.133 319.883,259.713 316.123,264.253C311.613,269.703 307.123,275.153 302.773,280.723C298.813,285.803 294.803,290.813 290.613,295.703C286.833,300.123 283.183,304.613 279.613,309.203C276.483,313.233 273.303,317.213 269.993,321.093C265.793,325.993 261.703,330.933 257.733,336.013C250.963,344.713 250.963,344.713 236.743,362.093L234.613,364.703C232.583,367.193 230.553,369.683 228.483,372.143C227.293,373.563 226.093,374.993 224.903,376.423C224.293,377.153 223.703,377.863 223.113,378.583C220.303,381.883 217.663,384.873 215.993,388.903C216.113,391.203 216.113,391.203 217.703,393.413L220.053,395.583C223.033,398.373 226.093,401.083 229.173,403.763C231.943,406.143 234.553,408.603 237.113,411.203C239.693,413.823 242.323,416.303 245.113,418.703C247.173,420.473 249.173,422.263 251.113,424.173C253.713,426.813 256.273,429.453 259.043,431.913C261.963,434.413 264.823,436.913 267.563,439.613C270.693,442.793 273.773,446.013 277.103,448.973C281.303,452.553 285.243,456.283 289.113,460.203C291.623,462.773 294.113,465.333 296.833,467.693C302.853,472.833 308.393,478.403 313.963,484.023C319.933,490.073 325.783,496.293 332.223,501.843C336.323,505.333 340.193,509.033 344.033,512.793C346.343,515.063 346.343,515.063 346.803,515.513C349.133,517.753 349.133,517.753 349.603,518.203C351.863,520.433 351.863,520.433 352.313,520.883C359.163,527.563 362.603,535.033 362.923,544.553L362.953,547.623C363.053,551.083 363.143,554.543 363.193,558.003C363.233,560.463 363.283,562.933 363.343,565.393C363.503,571.863 363.653,578.333 363.773,584.813C363.893,591.513 364.043,598.213 364.203,604.913C364.523,618.773 364.813,632.623 365.083,646.483L365.113,648.203L366.113,648.203C367.023,646.863 367.923,645.513 368.793,644.143C369.193,643.483 369.593,642.843 369.993,642.203C374.953,634.223 374.953,634.223 385.173,616.953C391.053,607.033 396.943,597.123 402.923,587.273C403.283,586.673 403.633,586.093 403.993,585.513C407.293,580.083 410.593,574.653 413.953,569.243L415.713,566.423C416.823,564.643 417.933,562.863 419.053,561.083C420.003,559.573 420.943,558.073 421.893,556.573C423.263,554.193 424.613,551.853 426.293,549.673C436.703,536.353 436.703,536.353 436.503,501.513C436.483,497.963 436.473,494.423 436.493,490.873C436.523,482.483 436.533,474.093 436.493,465.693C436.443,457.033 436.423,448.373 436.493,439.713C436.553,432.183 436.583,424.653 436.563,417.123C436.553,412.633 436.523,408.143 436.553,403.653C436.723,385.763 438.023,368.743 426.833,353.673C425.043,351.433 423.453,349.223 422.023,346.733C413.063,330.573 413.063,330.573 392.733,296.953C389.293,291.253 385.963,285.483 382.653,279.703C377.463,270.673 372.283,261.653 366.693,252.863C365.003,250.203 363.323,247.553 361.693,244.853C361.183,244.013 360.693,243.193 360.203,242.373L357.233,237.453C354.543,232.913 352.113,228.743 348.113,225.203Z" style="fill:rgb(27,23,20);fill-rule:nonzero;"/>
        </g>
        <g transform="matrix(1,0,0,1,1104,772)">
            <path d="M0,0C9.43,7.16 16.98,15.79 21,27C21.3,27.8 21.6,28.59 21.91,29.41C26.63,43.89 24.62,59.48 18.38,73.12C10.85,87.33 -0.86,96.25 -16,101C-30.04,104.72 -45.36,102.55 -57.8,95.39C-70.08,87.28 -80.26,75.04 -83.59,60.41C-84.16,55.68 -84.22,51.01 -84.25,46.25C-84.27,45.31 -84.29,44.37 -84.31,43.41C-84.39,28.92 -78.36,16.95 -68.31,6.69C-49.08,-12.13 -22.76,-14.14 0,0Z" style="fill:rgb(26,22,20);fill-rule:nonzero;"/>
        </g>
    </g>
</svg>
